<?xml version="1.0" encoding="UTF-8" standalone="no"?>
<!DOCTYPE svg PUBLIC "-//W3C//DTD SVG 1.1//EN" "http://www.w3.org/Graphics/SVG/1.1/DTD/svg11.dtd">
<svg version="1.1" xmlns="http://www.w3.org/2000/svg" xmlns:xlink="http://www.w3.org/1999/xlink" preserveAspectRatio="xMidYMid meet" viewBox="0 0 640 640" width="640" height="640"><defs><path d="M383.33 50L586.97 53.03L590.01 256.67L524.5 191.16L418.12 297.54L342.3 221.71L448.67 115.34L383.33 50Z" id="bD5ieGnv2"></path><path d="M50 256.68L53.03 53.04L256.68 50L191.16 115.51L297.54 221.88L221.72 297.71L115.34 191.33L50 256.68Z" id="a1bDG0LJ6y"></path><path d="M589.84 383.32L586.81 586.96L383.17 590L448.68 524.49L342.3 418.11L418.13 342.29L524.5 448.67L589.84 383.32Z" id="a2P72DGb5b"></path><path d="M256.7 589.83L53.05 586.79L50.02 383.15L115.53 448.66L221.9 342.29L297.73 418.11L191.35 524.48L256.7 589.83Z" id="hwf3Okk0G"></path></defs><g><g><g><use xlink:href="#bD5ieGnv2" opacity="1" fill="#000000" fill-opacity="1"></use></g><g><use xlink:href="#a1bDG0LJ6y" opacity="1" fill="#000000" fill-opacity="1"></use></g><g><use xlink:href="#a2P72DGb5b" opacity="1" fill="#000000" fill-opacity="1"></use></g><g><use xlink:href="#hwf3Okk0G" opacity="1" fill="#000000" fill-opacity="1"></use></g></g></g></svg>