<?xml version="1.0" encoding="UTF-8" standalone="no"?>
<!DOCTYPE svg PUBLIC "-//W3C//DTD SVG 1.1//EN" "http://www.w3.org/Graphics/SVG/1.1/DTD/svg11.dtd">
<svg version="1.1" xmlns="http://www.w3.org/2000/svg" xmlns:xlink="http://www.w3.org/1999/xlink" preserveAspectRatio="xMidYMid meet" viewBox="0 0 640 640" width="640" height="640"><defs><path d="M548.97 297.55L345.33 294.52L342.3 90.87L407.81 156.39L514.18 50.01L590 125.83L483.63 232.21L548.97 297.55Z" id="c69VlyBnO"></path><path d="M297.54 91.03L294.51 294.67L90.87 297.71L156.38 232.2L50 125.82L125.83 50L232.2 156.37L297.54 91.03Z" id="eq49RyWEG"></path><path d="M342.29 548.98L345.32 345.34L548.96 342.3L483.45 407.81L589.82 514.19L514 590.01L407.63 483.64L342.29 548.98Z" id="aYRlxNpM7"></path><path d="M91.04 342.28L294.68 345.32L297.72 548.96L232.21 483.45L125.83 589.82L50.01 514L156.38 407.63L91.04 342.28Z" id="a1LN6G7unD"></path></defs><g><g><g><use xlink:href="#c69VlyBnO" opacity="1" fill="#000000" fill-opacity="1"></use></g><g><use xlink:href="#eq49RyWEG" opacity="1" fill="#000000" fill-opacity="1"></use></g><g><use xlink:href="#aYRlxNpM7" opacity="1" fill="#000000" fill-opacity="1"></use></g><g><use xlink:href="#a1LN6G7unD" opacity="1" fill="#000000" fill-opacity="1"></use></g></g></g></svg>