<?xml version="1.0" encoding="UTF-8" standalone="no"?>
<!DOCTYPE svg PUBLIC "-//W3C//DTD SVG 1.1//EN" "http://www.w3.org/Graphics/SVG/1.1/DTD/svg11.dtd">
<svg version="1.1" xmlns="http://www.w3.org/2000/svg" xmlns:xlink="http://www.w3.org/1999/xlink" preserveAspectRatio="xMidYMid meet" viewBox="0 0 640 640" width="640" height="640"><defs><path d="M189.5 50.25C195.3 50.25 200 54.94 200 60.74C200 166.64 200 473.85 200 579.75C200 585.55 195.3 590.25 189.5 590.25C171.6 590.25 128.39 590.25 110.49 590.25C104.69 590.25 100 585.55 100 579.75C100 473.85 100 166.64 100 60.74C100 54.94 104.69 50.25 110.49 50.25C128.39 50.25 171.6 50.25 189.5 50.25Z" id="c499P1yZAS"></path><path d="M301.19 579.98C285.75 595.52 259.23 584.53 259.31 562.62C259.48 513.78 259.79 426.98 259.97 378.14C259.97 378.14 260.39 258.69 260.39 258.69C260.57 209.85 260.88 123.06 261.06 74.22C261.13 52.31 287.73 41.51 303.07 57.16C324.58 79.12 347.33 102.35 368.85 124.31C368.85 124.31 452.44 209.65 452.44 209.65C473.95 231.62 496.71 254.85 518.23 276.82C541.4 300.48 541.27 338.37 517.92 361.86C496.25 383.67 473.33 406.74 451.65 428.56C451.65 428.56 367.46 513.29 367.46 513.29C345.78 535.1 322.86 558.17 301.19 579.98Z" id="bKtlxRSHX"></path></defs><g><g><g><use xlink:href="#c499P1yZAS" opacity="1" fill="#000000" fill-opacity="1"></use></g><g><use xlink:href="#bKtlxRSHX" opacity="1" fill="#000000" fill-opacity="1"></use></g></g></g></svg>