<?xml version="1.0" encoding="UTF-8" standalone="no"?>
<!DOCTYPE svg PUBLIC "-//W3C//DTD SVG 1.1//EN" "http://www.w3.org/Graphics/SVG/1.1/DTD/svg11.dtd">
<svg version="1.1" xmlns="http://www.w3.org/2000/svg" xmlns:xlink="http://www.w3.org/1999/xlink" preserveAspectRatio="xMidYMid meet" viewBox="0 0 640 640" width="640" height="640"><defs><path d="M184.3 50C208.01 50 227.24 69.23 227.24 92.94C227.24 192.35 227.24 447.65 227.24 547.07C227.24 570.78 208.01 590 184.3 590C157.44 590 119.8 590 92.94 590C69.23 590 50 570.78 50 547.07C50 447.65 50 192.35 50 92.94C50 69.23 69.23 50 92.94 50C119.8 50 157.44 50 184.3 50Z" id="izGhMHKmS"></path><path d="M552.58 50C573.25 50 590 66.76 590 87.43C590 187.94 590 452.07 590 552.58C590 573.25 573.25 590 552.58 590C524.62 590 478.16 590 450.19 590C429.53 590 412.77 573.25 412.77 552.58C412.77 452.07 412.77 187.94 412.77 87.43C412.77 66.76 429.53 50 450.19 50C478.16 50 524.62 50 552.58 50Z" id="c2ExUFhuL"></path></defs><g><g><g><use xlink:href="#izGhMHKmS" opacity="1" fill="#000000" fill-opacity="1"></use></g><g><use xlink:href="#c2ExUFhuL" opacity="1" fill="#000000" fill-opacity="1"></use></g></g></g></svg>