<?xml version="1.0" encoding="UTF-8" standalone="no"?>
<!DOCTYPE svg PUBLIC "-//W3C//DTD SVG 1.1//EN" "http://www.w3.org/Graphics/SVG/1.1/DTD/svg11.dtd">
<svg version="1.1" xmlns="http://www.w3.org/2000/svg" xmlns:xlink="http://www.w3.org/1999/xlink" preserveAspectRatio="xMidYMid meet" viewBox="0 0 640 640" width="640" height="640"><defs><path d="M361.58 50.06L362.1 50.12L362.61 50.22L363.09 50.34L363.57 50.49L364.03 50.66L364.47 50.86L364.91 51.08L365.33 51.33L365.73 51.59L366.13 51.88L366.51 52.2L366.89 52.53L367.25 52.88L367.6 53.26L367.94 53.65L368.27 54.06L368.6 54.49L368.91 54.94L369.22 55.41L369.51 55.89L369.8 56.39L370.09 56.91L370.36 57.44L370.63 57.99L370.9 58.55L371.16 59.12L371.41 59.71L371.66 60.31L371.91 60.92L372.15 61.54L372.39 62.18L372.62 62.82L372.86 63.48L373.09 64.14L373.32 64.81L373.55 65.49L373.77 66.18L374 66.87L385.67 110.67L389.34 111.81L397.44 114.68L405.39 117.86L413.18 121.34L420.81 125.11L421.44 125.45L460.8 102.67L461.45 102.34L462.1 102.01L462.74 101.69L463.38 101.38L464.01 101.07L464.64 100.77L465.26 100.49L465.88 100.21L466.49 99.94L467.1 99.68L467.7 99.43L468.29 99.2L468.88 98.97L469.47 98.76L470.04 98.57L470.61 98.39L471.18 98.22L471.74 98.08L472.29 97.95L472.84 97.83L473.38 97.74L473.91 97.66L474.44 97.6L474.96 97.56L475.47 97.55L475.98 97.55L476.47 97.58L476.97 97.63L477.45 97.71L477.93 97.81L478.4 97.93L478.86 98.08L479.32 98.26L479.76 98.46L480.2 98.69L480.63 98.95L481.06 99.24L481.47 99.55L481.88 99.9L482.28 100.28L539.56 157.56L539.94 157.96L540.29 158.37L540.61 158.79L540.91 159.22L541.17 159.66L541.41 160.11L541.63 160.57L541.82 161.04L541.98 161.51L542.12 162L542.23 162.49L542.32 162.99L542.39 163.49L542.43 164.01L542.45 164.53L542.45 165.06L542.43 165.59L542.38 166.13L542.32 166.68L542.24 167.23L542.13 167.79L542.01 168.35L541.87 168.92L541.71 169.49L541.54 170.06L541.34 170.64L541.14 171.23L540.91 171.81L540.67 172.4L540.42 173L540.15 173.59L539.87 174.19L539.57 174.79L539.26 175.4L538.94 176L538.61 176.61L538.26 177.21L537.91 177.82L537.54 178.43L537.17 179.04L514.42 218.33L514.89 219.18L518.66 226.81L522.13 234.61L525.32 242.56L528.19 250.66L529.32 254.32L573.12 266L573.82 266.16L574.51 266.34L575.19 266.52L575.86 266.7L576.52 266.89L577.18 267.09L577.82 267.3L578.46 267.52L579.08 267.74L579.69 267.97L580.29 268.21L580.88 268.46L581.45 268.72L582.01 268.98L582.56 269.26L583.09 269.54L583.6 269.83L584.1 270.13L584.59 270.44L585.05 270.77L585.5 271.1L585.94 271.44L586.35 271.79L586.74 272.15L587.12 272.52L587.47 272.91L587.8 273.3L588.11 273.71L588.4 274.12L588.67 274.55L588.92 274.99L589.14 275.44L589.34 275.91L589.51 276.38L589.66 276.87L589.78 277.37L589.87 277.88L589.94 278.41L589.99 278.95L590 279.5L590 360.5L589.99 361.05L589.94 361.58L589.87 362.1L589.78 362.61L589.66 363.09L589.51 363.57L589.34 364.03L589.14 364.47L588.92 364.91L588.67 365.33L588.4 365.73L588.11 366.13L587.8 366.51L587.47 366.89L587.12 367.25L586.74 367.6L586.35 367.94L585.94 368.27L585.5 368.6L585.05 368.91L584.59 369.22L584.1 369.51L583.6 369.8L583.09 370.09L582.56 370.36L582.01 370.63L581.45 370.9L580.88 371.16L580.29 371.41L579.69 371.66L579.08 371.91L578.46 372.15L577.82 372.39L577.18 372.62L576.52 372.86L575.86 373.09L575.19 373.32L574.51 373.55L573.82 373.77L573.12 374L529.32 385.67L528.19 389.34L525.32 397.44L522.13 405.39L518.66 413.18L514.89 420.81L514.46 421.58L537.17 460.8L537.54 461.41L537.91 462.02L538.26 462.63L538.61 463.23L538.94 463.84L539.26 464.44L539.57 465.04L539.87 465.65L540.15 466.24L540.42 466.84L540.67 467.43L540.91 468.02L541.14 468.61L541.34 469.19L541.54 469.77L541.71 470.35L541.87 470.92L542.01 471.49L542.13 472.05L542.24 472.61L542.32 473.16L542.38 473.71L542.43 474.25L542.45 474.78L542.45 475.31L542.43 475.83L542.39 476.34L542.32 476.85L542.23 477.35L542.12 477.84L541.98 478.33L541.82 478.8L541.63 479.27L541.41 479.73L541.17 480.18L540.91 480.62L540.61 481.05L540.29 481.47L539.94 481.88L539.56 482.28L482.28 539.56L481.88 539.94L481.47 540.28L481.06 540.6L480.63 540.89L480.2 541.15L479.76 541.38L479.32 541.58L478.86 541.76L478.4 541.91L477.93 542.03L477.45 542.13L476.97 542.2L476.47 542.26L475.98 542.28L475.47 542.29L474.96 542.27L474.44 542.24L473.91 542.18L473.38 542.1L472.84 542.01L472.29 541.89L471.74 541.76L471.18 541.61L470.61 541.45L470.04 541.27L469.47 541.07L468.88 540.86L468.29 540.64L467.7 540.41L467.1 540.16L466.49 539.9L465.88 539.63L465.26 539.35L464.64 539.06L464.01 538.77L463.38 538.46L462.74 538.15L462.1 537.83L461.45 537.5L460.8 537.17L421.58 514.46L420.81 514.89L413.18 518.66L405.39 522.13L397.44 525.32L389.34 528.19L385.67 529.32L374 573.12L373.77 573.82L373.55 574.51L373.32 575.19L373.09 575.86L372.86 576.52L372.62 577.18L372.39 577.82L372.15 578.46L371.91 579.08L371.66 579.69L371.41 580.29L371.16 580.88L370.9 581.45L370.63 582.01L370.36 582.56L370.09 583.09L369.8 583.6L369.51 584.1L369.22 584.59L368.91 585.05L368.6 585.5L368.27 585.94L367.94 586.35L367.6 586.74L367.25 587.12L366.89 587.47L366.51 587.8L366.13 588.11L365.73 588.4L365.33 588.67L364.91 588.92L364.47 589.14L364.03 589.34L363.57 589.51L363.09 589.66L362.61 589.78L362.1 589.87L361.58 589.94L361.05 589.99L360.5 590L279.5 590L278.95 589.99L278.41 589.94L277.88 589.87L277.37 589.78L276.87 589.66L276.38 589.51L275.91 589.34L275.44 589.14L274.99 588.92L274.55 588.67L274.12 588.4L273.71 588.11L273.3 587.8L272.91 587.47L272.52 587.12L272.15 586.74L271.79 586.35L271.44 585.94L271.1 585.5L270.77 585.05L270.44 584.59L270.13 584.1L269.83 583.6L269.54 583.09L269.26 582.56L268.98 582.01L268.72 581.45L268.46 580.88L268.21 580.29L267.97 579.69L267.74 579.08L267.52 578.46L267.3 577.82L267.09 577.18L266.89 576.52L266.7 575.86L266.52 575.19L266.34 574.51L266.16 573.82L266 573.12L254.32 529.32L250.66 528.19L242.56 525.32L234.61 522.13L226.81 518.66L219.18 514.89L218.26 514.39L179.2 537.01L178.59 537.38L177.98 537.75L177.37 538.1L176.77 538.45L176.16 538.78L175.56 539.1L174.95 539.41L174.35 539.7L173.75 539.99L173.16 540.26L172.57 540.51L171.98 540.75L171.39 540.97L170.8 541.18L170.22 541.38L169.65 541.55L169.08 541.71L168.51 541.85L167.95 541.97L167.39 542.07L166.84 542.16L166.29 542.22L165.75 542.27L165.22 542.29L164.69 542.29L164.17 542.27L163.65 542.22L163.15 542.16L162.65 542.07L162.16 541.96L161.67 541.82L161.2 541.66L160.73 541.47L160.27 541.25L159.82 541.01L159.38 540.74L158.95 540.45L158.53 540.13L158.12 539.78L157.72 539.39L100.44 482.12L100.06 481.72L99.72 481.31L99.4 480.9L99.11 480.47L98.85 480.04L98.62 479.6L98.42 479.15L98.24 478.7L98.09 478.24L97.97 477.77L97.87 477.29L97.79 476.81L97.74 476.31L97.72 475.81L97.71 475.31L97.73 474.8L97.76 474.28L97.82 473.75L97.9 473.22L97.99 472.68L98.11 472.13L98.24 471.58L98.39 471.02L98.55 470.45L98.73 469.88L98.93 469.3L99.13 468.72L99.36 468.13L99.59 467.54L99.84 466.94L100.1 466.33L100.37 465.72L100.65 465.1L100.94 464.48L101.23 463.85L101.54 463.22L101.85 462.58L102.17 461.94L102.5 461.29L102.83 460.64L125.49 421.51L125.11 420.81L121.34 413.18L117.86 405.39L114.68 397.44L111.81 389.34L110.67 385.67L66.87 374L66.18 373.77L65.49 373.55L64.81 373.32L64.14 373.09L63.48 372.86L62.82 372.62L62.18 372.39L61.54 372.15L60.92 371.91L60.31 371.66L59.71 371.41L59.12 371.16L58.55 370.9L57.99 370.63L57.44 370.36L56.91 370.09L56.39 369.8L55.89 369.51L55.41 369.22L54.94 368.91L54.49 368.6L54.06 368.27L53.65 367.94L53.26 367.6L52.88 367.25L52.53 366.89L52.2 366.51L51.88 366.13L51.59 365.73L51.33 365.33L51.08 364.91L50.86 364.47L50.66 364.03L50.49 363.57L50.34 363.09L50.22 362.61L50.12 362.1L50.06 361.58L50.01 361.05L50 360.5L50 279.5L50.01 278.95L50.06 278.41L50.12 277.88L50.22 277.37L50.34 276.87L50.49 276.38L50.66 275.91L50.86 275.44L51.08 274.99L51.33 274.55L51.59 274.12L51.88 273.71L52.2 273.3L52.53 272.91L52.88 272.52L53.26 272.15L53.65 271.79L54.06 271.44L54.49 271.1L54.94 270.77L55.41 270.44L55.89 270.13L56.39 269.83L56.91 269.54L57.44 269.26L57.99 268.98L58.55 268.72L59.12 268.46L59.71 268.21L60.31 267.97L60.92 267.74L61.54 267.52L62.18 267.3L62.82 267.09L63.48 266.89L64.14 266.7L64.81 266.52L65.49 266.34L66.18 266.16L66.87 266L110.67 254.32L111.81 250.66L114.68 242.56L117.86 234.61L121.34 226.81L125.11 219.18L125.53 218.41L102.83 179.2L102.5 178.54L102.17 177.9L101.85 177.26L101.54 176.62L101.23 175.99L100.94 175.36L100.65 174.74L100.37 174.12L100.1 173.51L99.84 172.9L99.59 172.3L99.36 171.71L99.13 171.12L98.93 170.53L98.73 169.96L98.55 169.38L98.39 168.82L98.24 168.26L98.11 167.71L97.99 167.16L97.9 166.62L97.82 166.09L97.76 165.56L97.73 165.04L97.71 164.53L97.72 164.02L97.74 163.52L97.79 163.03L97.87 162.55L97.97 162.07L98.09 161.6L98.24 161.14L98.42 160.68L98.62 160.24L98.85 159.8L99.11 159.36L99.4 158.94L99.72 158.53L100.06 158.12L100.44 157.72L157.72 100.44L158.12 100.06L158.53 99.71L158.95 99.39L159.38 99.09L159.82 98.83L160.27 98.58L160.73 98.37L161.2 98.18L161.67 98.02L162.16 97.88L162.65 97.77L163.15 97.68L163.65 97.61L164.17 97.57L164.69 97.55L165.22 97.55L165.75 97.57L166.29 97.62L166.84 97.68L167.39 97.76L167.95 97.87L168.51 97.99L169.08 98.13L169.65 98.29L170.22 98.46L170.8 98.65L171.39 98.86L171.98 99.09L172.57 99.33L173.16 99.58L173.75 99.85L174.35 100.13L174.95 100.43L175.56 100.74L176.16 101.06L176.77 101.39L177.37 101.73L177.98 102.09L178.59 102.45L179.2 102.83L218.41 125.53L219.18 125.11L226.81 121.34L234.61 117.86L242.56 114.68L250.66 111.81L254.32 110.67L266 66.87L266.16 66.18L266.34 65.49L266.52 64.81L266.7 64.14L266.89 63.48L267.09 62.82L267.3 62.18L267.52 61.54L267.74 60.92L267.97 60.31L268.21 59.71L268.46 59.12L268.72 58.55L268.98 57.99L269.26 57.44L269.54 56.91L269.83 56.39L270.13 55.89L270.44 55.41L270.77 54.94L271.1 54.49L271.44 54.06L271.79 53.65L272.15 53.26L272.52 52.88L272.91 52.53L273.3 52.2L273.71 51.88L274.12 51.59L274.55 51.33L274.99 51.08L275.44 50.86L275.91 50.66L276.38 50.49L276.87 50.34L277.37 50.22L277.88 50.12L278.41 50.06L278.95 50.01L279.5 50L360.5 50L361.05 50.01L361.58 50.06ZM310.31 202.27L305.55 202.75L300.84 203.42L296.19 204.27L291.61 205.31L287.1 206.52L282.66 207.9L278.3 209.44L274.02 211.16L269.82 213.03L265.71 215.06L261.7 217.24L257.78 219.57L253.95 222.05L250.24 224.67L246.63 227.42L243.12 230.31L239.74 233.33L236.47 236.47L233.33 239.74L230.31 243.12L227.42 246.63L224.67 250.24L222.05 253.95L219.57 257.78L217.24 261.7L215.06 265.71L213.03 269.82L211.16 274.02L209.44 278.3L207.9 282.66L206.52 287.1L205.31 291.61L204.27 296.19L203.42 300.84L202.75 305.55L202.27 310.31L201.97 315.13L201.87 320L201.97 324.87L202.27 329.69L202.75 334.45L203.42 339.16L204.27 343.81L205.31 348.39L206.52 352.9L207.9 357.34L209.44 361.7L211.16 365.98L213.03 370.18L215.06 374.28L217.24 378.3L219.57 382.22L222.05 386.04L224.67 389.76L227.42 393.37L230.31 396.87L233.33 400.26L236.47 403.53L239.74 406.67L243.12 409.69L246.63 412.58L250.24 415.33L253.95 417.95L257.78 420.43L261.7 422.76L265.71 424.94L269.82 426.97L274.02 428.84L278.3 430.55L282.66 432.1L287.1 433.48L291.61 434.69L296.19 435.72L300.84 436.58L305.55 437.25L310.31 437.73L315.13 438.03L320 438.12L324.87 438.03L329.69 437.73L334.45 437.25L339.16 436.58L343.81 435.72L348.39 434.69L352.9 433.48L357.34 432.1L361.7 430.55L365.98 428.84L370.18 426.97L374.28 424.94L378.3 422.76L382.22 420.43L386.04 417.95L389.76 415.33L393.37 412.58L396.87 409.69L400.26 406.67L403.53 403.53L406.67 400.26L409.69 396.87L412.58 393.37L415.33 389.76L417.95 386.04L420.43 382.22L422.76 378.3L424.94 374.28L426.97 370.18L428.84 365.98L430.55 361.7L432.1 357.34L433.48 352.9L434.69 348.39L435.72 343.81L436.58 339.16L437.25 334.45L437.73 329.69L438.03 324.87L438.12 320L438.03 315.13L437.73 310.31L437.25 305.55L436.58 300.84L435.72 296.19L434.69 291.61L433.48 287.1L432.1 282.66L430.55 278.3L428.84 274.02L426.97 269.82L424.94 265.71L422.76 261.7L420.43 257.78L417.95 253.95L415.33 250.24L412.58 246.63L409.69 243.12L406.67 239.74L403.53 236.47L400.26 233.33L396.87 230.31L393.37 227.42L389.76 224.67L386.04 222.05L382.22 219.57L378.3 217.24L374.28 215.06L370.18 213.03L365.98 211.16L361.7 209.44L357.34 207.9L352.9 206.52L348.39 205.31L343.81 204.27L339.16 203.42L334.45 202.75L329.69 202.27L324.87 201.97L320 201.87L315.13 201.97L310.31 202.27Z" id="ahN91QfAY"></path></defs><g><g><g><use xlink:href="#ahN91QfAY" opacity="1" fill="#000000" fill-opacity="1"></use></g></g></g></svg>