<?xml version="1.0" encoding="UTF-8" standalone="no"?>
<!DOCTYPE svg PUBLIC "-//W3C//DTD SVG 1.1//EN" "http://www.w3.org/Graphics/SVG/1.1/DTD/svg11.dtd">
<svg version="1.1" xmlns="http://www.w3.org/2000/svg" xmlns:xlink="http://www.w3.org/1999/xlink" preserveAspectRatio="xMidYMid meet" viewBox="0 0 640 640" width="640" height="640"><defs><path d="M125.98 444.65C162.61 444.65 197.4 460.73 221.15 488.62C244.52 516.08 277.21 554.49 300.59 581.95C313.4 597 338.02 587.94 338.02 568.18C338.02 457.37 338.02 182.68 338.02 71.87C338.02 52.11 313.4 43.05 300.59 58.1C277.21 85.56 244.52 123.97 221.15 151.43C197.4 179.33 162.61 195.4 125.98 195.4C110.78 195.4 122.94 195.4 107.74 195.4C75.85 195.4 50 221.25 50 253.15C50 291.45 50 348.61 50 386.91C50 418.8 75.85 444.65 107.74 444.65C122.94 444.65 110.78 444.65 125.98 444.65Z" id="fq2XkhKc3"></path><path d="M585.05 364.94C591.73 371.44 591.73 382.17 585.05 388.67C580.37 393.22 578.53 395 573.85 399.55C567.06 406.16 556.24 406.16 549.45 399.55C539.17 389.57 520.55 371.46 510.28 361.48C503.48 354.87 492.66 354.87 485.87 361.48C475.59 371.47 456.98 389.57 446.7 399.55C439.91 406.16 429.09 406.16 422.29 399.55C417.61 395 415.78 393.22 411.1 388.67C404.42 382.17 404.42 371.44 411.1 364.94C421.37 354.95 439.99 336.85 450.27 326.86C456.95 320.37 456.95 309.63 450.27 303.14C439.99 293.15 421.37 275.05 411.1 265.06C404.42 258.56 404.42 247.83 411.1 241.33C415.78 236.78 417.61 235 422.29 230.45C429.09 223.84 439.91 223.84 446.7 230.45C456.98 240.43 475.59 258.54 485.87 268.52C492.66 275.13 503.48 275.13 510.28 268.52C520.55 258.54 539.17 240.43 549.45 230.45C556.24 223.84 567.06 223.84 573.85 230.45C578.53 235 580.37 236.78 585.05 241.33C591.73 247.83 591.73 258.56 585.05 265.06C574.77 275.05 556.16 293.15 545.88 303.14C539.2 309.63 539.2 320.37 545.88 326.86C556.16 336.85 574.77 354.95 585.05 364.94Z" id="akLV5MikR"></path></defs><g><g><g><use xlink:href="#fq2XkhKc3" opacity="1" fill="#000000" fill-opacity="1"></use></g><g><use xlink:href="#akLV5MikR" opacity="1" fill="#000000" fill-opacity="1"></use></g></g></g></svg>